Coordinates
version=1
nRows=19
nColumns=36
inDegrees=yes

Units are S.I. units (second, meters, Newtons, ...)
If the header above contains a line with 'inDegrees', this indicates whether rotational values are in degrees (yes) or radians (no).

endheader
time	pelvis_tilt	pelvis_list	pelvis_rotation	pelvis_tx	pelvis_ty	pelvis_tz	hip_flexion_r	hip_adduction_r	hip_rotation_r	knee_angle_r	knee_angle_r_beta	ankle_angle_r	subtalar_angle_r	mtp_angle_r	hip_flexion_l	hip_adduction_l	hip_rotation_l	knee_angle_l	knee_angle_l_beta	ankle_angle_l	subtalar_angle_l	mtp_angle_l	lumbar_extension	lumbar_bending	lumbar_rotation	arm_flex_r	arm_add_r	arm_rot_r	elbow_flex_r	pro_sup_r	arm_flex_l	arm_add_l	arm_rot_l	elbow_flex_l	pro_sup_l
      5.93333330	      3.33410219	     -3.63955813	     -0.99305936	      0.09760885	      0.90338119	     -0.15275971	     42.80550928	      3.13798514	     -3.37397496	     15.49687596	      0.27047151	     -9.71582739	     -5.99231534	     -7.49999987	     20.31940469	      0.86323231	     -3.36812713	     41.76993843	      0.72902295	     14.46765783	    -12.24427076	     -7.49999987	    -18.77059530	      1.63584121	      8.51611588	     83.06014508	      2.26597076	     53.76987713	    131.40809652	     88.09993353	    106.02481932	      5.62664468	     76.93677142	    110.81213139	     74.39566985
      5.95000000	      3.23072047	     -3.61754227	     -0.85316567	      0.09458828	      0.89748868	     -0.15160142	     43.47719059	      3.04807042	     -3.34303408	     15.84498105	      0.27654709	     -9.63857696	     -6.61714780	     -7.49999987	     21.88487826	      0.75242478	     -3.37893240	     44.10645281	      0.76980282	     14.81139031	    -12.33580821	     -7.49999987	    -19.61157998	      1.47858013	      7.93485761	     83.78198484	      2.24456634	     54.18387967	    130.76679265	     87.58017176	    106.95376881	      5.40773289	     77.00928805	    111.16365050	     73.83121330
      5.96666670	      3.19745883	     -3.49380461	     -0.43274614	      0.09291887	      0.89335012	     -0.15182317	     43.67032972	      2.75449291	     -3.17034892	     15.63845422	      0.27294252	     -9.57603047	     -6.87966730	     -7.49999987	     22.91467680	      0.78319632	     -3.34414734	     45.77806199	      0.79897791	     14.92423179	    -12.62051788	     -7.49999987	    -20.09874696	      1.27798884	      7.75083624	     84.87550609	      2.87562273	     55.96235680	    130.41571898	     91.87008683	    107.04513001	      5.54589835	     77.22524097	    111.02265405	     75.07151307
      5.98333330	      2.91062809	     -3.48972618	     -0.27682718	      0.08859814	      0.88793748	     -0.15228671	     44.40527808	      2.63536405	     -3.15466940	     15.91363590	      0.27774534	     -9.46950889	     -7.15463025	     -7.49999987	     24.63477105	      0.72186369	     -3.34569432	     47.97864206	      0.83738527	     15.59320144	    -12.70765979	     -7.49999987	    -20.28086240	      1.11649949	      7.47932210	     85.99852433	      4.23304276	     59.04031775	    131.28112563	     91.29043731	    107.11297348	      5.50907353	     77.69090499	    111.18697446	     74.41619058
      6.00000000	      3.28092726	     -3.52324480	      0.07545756	      0.08435559	      0.88268159	     -0.15196919	     43.85920835	      2.50284948	     -3.38098534	     14.64711123	      0.25564032	     -9.74456200	     -6.66459154	     -7.49999987	     25.62640084	      0.64355252	     -3.06082673	     50.09822758	      0.87437902	     16.43974319	    -11.93660862	     -7.49999987	    -20.84250984	      0.75662297	      6.07820354	     86.99926031	      6.57191237	     62.44514332	    130.72663327	     90.83434151	    107.43265088	      5.65676255	     78.59941240	    110.78248958	     74.00101001
      6.01666670	      3.13876381	     -3.39941522	      0.24970497	      0.08157063	      0.87773858	     -0.15285101	     43.96503611	      2.25205701	     -3.50133043	     13.83488301	      0.24146426	     -9.72686433	     -6.29677382	     -7.49999987	     26.87669746	      0.80221216	     -3.13563272	     51.79732717	      0.90403390	     17.04331110	    -11.74343262	     -7.49999987	    -21.22914922	      0.51224786	      4.51626716	     87.76901671	      9.00448349	     64.82037492	    129.79809937	     90.76893975	    107.83547980	      5.12343170	     79.11237293	    110.49222767	     73.66383101
      6.03333330	      3.22495527	     -3.33429053	      0.67197585	      0.07924357	      0.87408546	     -0.15294188	     43.66023613	      2.02875418	     -3.57480891	     13.16363065	      0.22974870	     -9.76672844	     -5.68748194	     -7.49999987	     27.52858772	      0.79541157	     -3.34534368	     52.91469206	      0.92353560	     17.31065865	    -11.42088066	     -7.49999987	    -22.14594905	      0.61053662	      4.62298930	     87.40404912	      7.29973788	     63.47754912	    129.21393331	     93.17789126	    108.07302403	      4.93371971	     78.75299794	    110.35104967	     73.45878980
      6.05000000	      3.12831568	     -3.12038887	      0.91898527	      0.07585375	      0.86997137	     -0.15344997	     43.67104457	      1.71092657	     -3.60137736	     12.54525695	      0.21895604	     -9.96811274	     -5.38521649	     -7.49999987	     28.42951216	      1.06207032	     -3.41697341	     53.98930465	      0.94229113	     17.63156834	    -11.24761270	     -7.49999987	    -23.00665852	      0.40331892	      4.74008963	     88.11521730	      7.06487385	     64.55888130	    129.27623832	     92.87903774	    108.39381553	      5.64949286	     79.04466278	    109.68202105	     72.98728545
      6.06666670	      2.91333373	     -3.29213192	      1.01000525	      0.08040734	      0.86230131	     -0.15336035	     44.01193905	      1.71183229	     -3.62400604	     12.44293525	      0.21717019	     -9.86690609	     -5.64701743	     -7.49999987	     29.10991562	      0.80047260	     -3.41418937	     55.20827567	      0.96356618	     18.64424627	    -11.19931663	     -7.49999987	    -23.57876983	      0.68853220	      4.77810216	     87.52322578	      5.39443559	     62.42582132	    129.43729250	     93.49388487	    108.36166881	      6.01563897	     78.71422555	    109.92326154	     72.97964195
      6.08333330	      2.45158267	     -3.22264802	      1.53381427	      0.07689414	      0.85718912	     -0.15400233	     44.52287108	      1.31765219	     -3.48430124	     12.14554267	      0.21197971	     -9.50232247	     -5.26164723	     -7.49999987	     30.62888207	      1.18896757	     -2.93227428	     56.82431172	      0.99177133	     19.62126604	    -11.79313998	     -7.49999987	    -23.22377804	      0.62192916	      4.52157092	     86.70597739	      5.74244682	     62.55128042	    129.32138740	     92.34769481	    107.38647587	      6.64410227	     78.42085390	    109.65746457	     72.24752173
      6.10000000	      2.41262323	     -2.96497171	      1.79203957	      0.06934217	      0.85199063	     -0.15387123	     45.14769269	      0.87798032	     -3.43237126	     12.46689290	      0.21758833	     -9.04008886	     -5.51717673	     -7.49999987	     31.97601210	      1.37267665	     -3.20530025	     58.49440685	      1.02091999	     20.31202912	    -11.17479343	     -7.49999987	    -24.33050777	      0.55008234	      4.20404652	     87.91622915	      5.94120454	     63.29418035	    129.19345210	     92.11548917	    108.65904971	      5.60265744	     78.69752907	    109.97253020	     71.86930350
      6.11666670	      2.11496237	     -2.59168792	      2.08816684	      0.06797969	      0.84669597	     -0.15454202	     45.88036373	      0.30416278	     -3.33089259	     12.40962248	      0.21658877	     -9.22110965	     -5.35631231	     -7.49999987	     33.07088147	      1.82763911	     -3.32166858	     59.36531138	      1.03612015	     20.83565841	    -11.21489770	     -7.49999987	    -24.58699402	      0.54023217	      3.34650742	     87.29705351	      6.14673502	     62.83390597	    127.99375290	     94.27800977	    108.30031281	      4.03115827	     78.22334223	    110.77616024	     71.08974053
      6.13333330	      1.95001163	     -2.32751719	      2.07981514	      0.06925134	      0.84111377	     -0.15444570	     46.12714880	      0.04771111	     -3.42284696	     11.88913169	      0.20750449	     -9.32516140	     -4.91178230	     -7.49999987	     33.78338656	      2.10131121	     -3.44804627	     60.28813434	      1.05222644	     20.95757453	    -11.64624543	     -7.49999987	    -24.99629062	      0.34640053	      3.17455368	     86.26933535	      4.74825086	     60.58643429	    127.21467905	     94.15398373	    108.31740383	      3.20874472	     78.04951613	    110.92165686	     70.98435926
      6.15000000	      1.55012538	     -2.05256789	      2.02081602	      0.06699711	      0.83283957	     -0.15335571	     46.93962695	     -0.09233509	     -3.08563149	     11.93695776	      0.20833922	     -9.11282653	     -5.01312437	     -7.49999987	     34.98478244	      2.40374095	     -3.48098251	     61.52013838	      1.07372897	     22.29785780	    -11.35440808	     -7.49999987	    -25.24111101	     -0.07911511	      3.67528661	     87.33836434	      4.81281761	     62.33678380	    127.20262547	     94.06583338	    108.69648743	      3.34120806	     78.22516615	    110.48601670	     70.89120455
      6.16666670	      1.09142954	     -1.98347819	      1.93215511	      0.06679223	      0.82680158	     -0.15314340	     47.72171765	     -0.03106861	     -2.96818627	     11.87796795	      0.20730965	     -9.13808411	     -5.02005058	     -7.49999987	     36.50133589	      2.59530580	     -3.37025910	     63.22281702	      1.10344632	     22.93367637	    -11.72798953	     -7.49999987	    -25.39588006	     -0.12067726	      4.25016451	     87.69145329	      3.39112963	     61.23778415	    126.83408500	     93.01681044	    108.74194372	      3.31419931	     77.62749479	    111.17356845	     70.38156449
      6.18333330	      0.62342609	     -1.84252394	      1.82455631	      0.06740371	      0.82112949	     -0.15328231	     48.48415522	     -0.06980562	     -2.54003995	     11.60386500	      0.20252565	     -9.17905839	     -5.24706575	     -7.49999987	     37.76831153	      2.88124632	     -3.11993936	     64.65652999	      1.12846933	     24.26029798	    -11.29446925	     -7.49999987	    -25.24923235	     -0.34202431	      5.30525305	     88.21790898	      2.92799227	     62.65523733	    127.99106054	     92.63838832	    108.35087767	      3.63785101	     77.49068276	    112.40149238	     70.12283786
      6.20000000	     -0.12395990	     -1.51610754	      1.58002381	      0.06784191	      0.81295459	     -0.15204352	     49.50344962	     -0.15897892	     -2.09528191	     10.74116395	      0.18746868	     -9.83532733	     -5.16226411	     -7.49999987	     39.23638884	      3.21563568	     -3.12237767	     65.54308246	      1.14394259	     25.81150368	    -10.25573352	     -7.49999987	    -24.69223116	     -0.73057813	      5.65408360	     88.80629146	      3.58517702	     64.27178092	    128.42565789	     92.69897899	    107.94646507	      2.90201848	     77.35853979	    112.85914485	     70.13879101
      6.21666670	     -0.43072956	     -1.67297348	      1.99482873	      0.06535582	      0.80549945	     -0.15237904	     50.20306816	     -0.37724908	     -2.17772183	     10.63021131	      0.18553219	     -9.68288031	     -5.51882973	     -7.49999987	     40.78165996	      3.31846239	     -2.71430913	     67.28259387	      1.17430279	     26.14477943	    -10.15245673	     -7.49999987	    -24.49884331	     -0.42817206	      5.49085141	     89.52923850	      4.49607768	     65.58239293	    128.29564680	     91.82524998	    107.63519396	      2.79371864	     77.07136065	    112.59070064	     69.74144958
      6.23333330	     -0.82206846	     -1.65482483	      2.42466183	      0.06272047	      0.80051481	     -0.15261680	     50.81463764	     -0.77536375	     -1.88212432	     10.47361045	      0.18279899	     -9.67294705	     -6.11756092	     -7.49999987	     42.40611026	      3.66858839	     -2.39049938	     68.72552484	      1.19948669	     27.46727377	     -9.39777159	     -7.49999987	    -24.29027242	     -0.41190029	      4.57060333	     89.09383680	      5.10505348	     65.95373298	    127.68677599	     91.17427817	    107.55125980	      2.40463303	     77.15759244	    112.02247934	     69.38147134
